<svg xmlns="http://www.w3.org/2000/svg" viewBox="0 0 400 400" width="100%" height="100%">
  <defs>
    <linearGradient id="purpleBlue" x1="0%" y1="0%" x2="100%" y2="100%">
      <stop offset="0%" stop-color="#9333ea" />
      <stop offset="100%" stop-color="#2563eb" />
    </linearGradient>
    
    <linearGradient id="lightPurple" x1="0%" y1="100%" x2="100%" y2="0%">
      <stop offset="0%" stop-color="#a855f7" />
      <stop offset="100%" stop-color="#6366f1" />
    </linearGradient>
    
    <linearGradient id="darkBlue" x1="0%" y1="0%" x2="100%" y2="100%">
      <stop offset="0%" stop-color="#3b82f6" />
      <stop offset="100%" stop-color="#1e40af" />
    </linearGradient>
  </defs>

  <path d="M 60 200 
           C 80 200, 120 280, 180 280 
           C 260 280, 300 160, 300 120 
           C 300 70, 250 40, 200 40 
           C 150 40, 120 80, 120 120 
           L 180 120 
           C 180 90, 200 80, 220 80 
           C 240 80, 250 100, 250 120 
           C 250 150, 220 220, 170 220 
           C 130 220, 100 180, 60 180 Z" 
        fill="url(#lightPurple)"/>

  <path d="M 20 160 
           C 60 160, 90 260, 160 260 
           C 180 260, 200 240, 210 220 
           L 160 220 
           C 140 230, 120 220, 100 180 
           C 80 140, 50 140, 20 140 Z" 
        fill="url(#purpleBlue)"/>

  <path d="M 180 220 
           C 220 240, 240 280, 280 340 
           C 300 370, 340 370, 340 370 
           L 280 370 
           C 260 370, 240 340, 220 300 
           C 200 270, 180 260, 160 260 Z" 
        fill="url(#darkBlue)"/>
</svg>